<?xml version="1.0" encoding="UTF-8"?>
<svg width="700pt" height="700pt" version="1.1" viewBox="0 0 700 700" xmlns="http://www.w3.org/2000/svg" fill='#fff'>
 <path d="m587.12 72.977c-4.875-3.2461-11.047-3.8359-16.449-1.5781-33.887 14.625-71.168 19.555-107.69 14.242-36.523-5.3164-70.852-20.664-99.164-44.34l-2.625-2.2734v-0.003906c-3.1445-2.6172-7.1055-4.0508-11.199-4.0508s-8.0547 1.4336-11.199 4.0508l-2.625 2.2734v0.003906c-28.312 23.676-62.641 39.023-99.164 44.34-36.52 5.3125-73.801 0.38281-107.69-14.242-5.4023-2.2852-11.59-1.7148-16.484 1.5234-4.8906 3.2383-7.8359 8.7109-7.8398 14.578v90.301c0.035156 65.887 17.961 130.53 51.863 187.02 33.902 56.496 82.512 102.72 140.64 133.75l45.148 24.324c5.1445 2.7383 11.309 2.7383 16.453 0l45.148-24.324c57.801-31.258 106.05-77.586 139.64-134.07 33.586-56.477 51.25-121 51.113-186.71v-90.301c-0.03125-5.8555-2.9844-11.305-7.875-14.523z"/>
</svg>
