<?xml version="1.0" encoding="UTF-8"?>
<svg width="700pt" height="700pt" version="1.1" viewBox="0 0 700 700" xmlns="http://www.w3.org/2000/svg" fill='#fff'>
 <path d="m252.66 326.67h94.84c11.363-0.25391 22.449 3.4961 31.324 10.594 8.8711 7.1016 14.965 17.094 17.211 28.234 2.2969 13.555-1.4961 27.434-10.367 37.938-8.8711 10.504-21.918 16.562-35.668 16.566h93.332l66.352-72.5c8.9727-11.18 23.09-16.918 37.316-15.164 14.227 1.7539 26.527 10.75 32.516 23.773s4.8008 28.219-3.1289 40.156l-58.41 79.148v-0.003906c-17.594 23.848-45.465 37.922-75.098 37.922h-302.88c-6.1875 0-12.125-2.457-16.5-6.832s-6.832-10.312-6.832-16.5v-93.332c0-6.1914 2.457-12.125 6.832-16.5s10.312-6.8359 16.5-6.8359h46.668l32.996-32.996c8.75-8.75 20.621-13.668 32.996-13.668zm116.01-280h-37.336c-4.9492 0-9.6992 1.9648-13.199 5.4648s-5.4648 8.25-5.4648 13.199v37.336h-37.336c-4.9492 0-9.6992 1.9648-13.199 5.4648s-5.4648 8.25-5.4648 13.199v37.336c0 4.9492 1.9648 9.6992 5.4648 13.199s8.25 5.4648 13.199 5.4648h37.332l0.003907 37.336c0 4.9492 1.9648 9.6992 5.4648 13.199s8.25 5.4648 13.199 5.4648h37.336c4.9492 0 9.6992-1.9648 13.199-5.4648s5.4648-8.25 5.4648-13.199v-37.336h37.336c4.9492 0 9.6992-1.9648 13.199-5.4648s5.4648-8.25 5.4648-13.199v-37.336c0-4.9492-1.9648-9.6992-5.4648-13.199s-8.25-5.4648-13.199-5.4648h-37.336v-37.336c0-4.9492-1.9648-9.6992-5.4648-13.199s-8.25-5.4648-13.199-5.4648z"/>
</svg>
