<?xml version="1.0" encoding="UTF-8"?>
<svg width="700pt" height="700pt" version="1.1" viewBox="0 0 700 700" xmlns="http://www.w3.org/2000/svg" fill='#fff'>
 <path d="m350 533.75c140.05 0 253.75-113.7 253.75-253.75s-113.7-253.75-253.75-253.75-253.75 113.7-253.75 253.75 113.7 253.75 253.75 253.75zm-19.199-202.96c1.1719-1.9961 1.4883-4.3906 0.89062-6.6484-0.59375-2.2383-2.0664-4.1641-4.0781-5.3203-3.3086-1.9062-6.1406-4.2539-8.7656-6.8242-0.015625 0-0.015625-0.015626-0.015625-0.015626-3.9219-3.8164-6.9297-8.5039-9.3086-13.824-2.2578-5.6875-3.4297-11.34-3.4492-16.977 0-2.3281-0.94531-4.5508-2.5898-6.1758-1.6445-1.6445-3.8672-2.5547-6.1953-2.5391l-157.27 0.69922c-4.7422 0.015625-8.6094 3.8164-8.7148 8.5391-0.85938 37.102 8.6289 74.672 28.488 109.09 19.863 34.406 47.672 61.406 80.219 79.203 4.1641 2.2734 9.3789 0.82422 11.762-3.2734l79.031-135.94zm50.418-18.863c-0.015625 0.015625-0.035156 0.035156-0.050781 0.070313-2.6953 2.625-5.6523 5.0039-9.0117 6.9648-2.0117 1.1719-3.4648 3.0781-4.0586 5.3203-0.57812 2.2578-0.26172 4.6367 0.91016 6.6484l79.223 135.8c2.3789 4.0938 7.5938 5.5469 11.762 3.2734 32.551-17.797 60.359-44.801 80.219-79.203 19.863-34.422 29.348-71.996 28.488-109.09-0.10547-4.7266-3.9727-8.5234-8.7148-8.5391l-157.27-0.69922c-4.8281-0.015625-8.7656 3.8672-8.7852 8.6992-0.035156 5.5664-1.1211 11.129-3.3086 16.676-2.5742 5.4062-5.4414 10.289-9.3984 14.086zm-31.219-54.512c-12.477 0-22.594 10.113-22.594 22.594 0 12.477 10.113 22.594 22.594 22.594 12.477 0 22.594-10.113 22.594-22.594 0-12.477-10.113-22.594-22.594-22.594zm21.488-14.805c2.0312 1.2773 4.4805 1.6641 6.7891 1.0859s4.2891-2.082 5.4766-4.1484l77.996-136.52c2.3633-4.1133 1.0156-9.3438-3.0469-11.812-31.691-19.285-68.969-29.871-108.71-29.871-39.742 0-77.016 10.586-108.71 29.871-4.0586 2.4688-5.4062 7.6992-3.0469 11.812l77.996 136.52c1.1719 2.0664 3.1484 3.5508 5.4414 4.1289 2.3086 0.59375 4.7422 0.21094 6.7539-1.0312 5.9844-3.6914 13.684-5.7031 21.488-5.6367 7.8398 0.070313 15.559 1.8203 21.559 5.6016z" fill-rule="evenodd"/>
</svg>
